<svg width="13" height="12" viewBox="0 0 13 12" fill="none" xmlns="http://www.w3.org/2000/svg">
<path d="M12.5852 6.33504C12.5852 9.45509 10.0402 12.0001 6.92017 12.0001C5.35129 12.0001 3.92193 11.3551 2.91092 10.3268L3.78241 9.45511C4.5842 10.2394 5.69975 10.745 6.92005 10.745C9.36049 10.745 11.3301 8.77542 11.3301 6.33494C11.3301 3.89447 9.36053 1.92488 6.92025 1.92488C4.77602 1.92488 2.9808 3.4065 2.57979 5.42853L3.99171 5.21933L1.98713 8.02577L0 5.21933L1.32476 5.41098C1.74308 2.70935 4.07879 0.669922 6.92023 0.669922C10.0403 0.669922 12.5853 3.19736 12.5853 6.335L12.5852 6.33504Z" fill="black"/>
<path d="M8.99437 4.48744C9.72646 4.17368 10.2145 5.30677 9.49994 5.638L7.23391 6.54443L6.76318 7.81679C6.48428 8.61858 5.33386 8.09577 5.59523 7.38108L6.13549 5.8819C6.2052 5.72494 6.29245 5.603 6.43186 5.55068L8.99437 4.48744Z" fill="black"/>
</svg>
