<svg width="10" height="9" viewBox="0 0 10 9" fill="none" xmlns="http://www.w3.org/2000/svg">
<path d="M5.57095 8.02904C6.10047 7.88769 6.59516 7.64107 7.02147 7.30583L8.86418 8.74915C9.03661 8.88444 9.27533 8.92004 9.49019 8.84255C9.70515 8.76505 9.86369 8.58621 9.9061 8.37345C9.94855 8.16078 9.86846 7.94631 9.69593 7.81107L7.87189 6.38139C8.50836 5.40735 8.63647 4.22235 8.21829 3.17792C7.80013 2.13346 6.88374 1.34956 5.74066 1.05857C4.59772 0.767535 3.35946 1.00287 2.39325 1.69482C1.42698 2.38678 0.843483 3.4558 0.816062 4.58497C0.788475 5.71406 1.32006 6.7737 2.25304 7.44942C3.18601 8.12514 4.41332 8.33955 5.57105 8.02894L5.57095 8.02904ZM4.02138 2.23327C4.67707 2.05797 5.37109 2.13405 5.95095 2.4449C6.53073 2.75579 6.94885 3.27579 7.11322 3.89058C7.27763 4.5055 7.17479 5.16479 6.82752 5.7235C6.4801 6.28217 5.91668 6.69454 5.26102 6.86984C4.60544 7.04511 3.9114 6.96893 3.33157 6.65818C2.75167 6.34733 2.33367 5.82729 2.16927 5.2124C2.00489 4.59758 2.10762 3.93832 2.455 3.37958C2.80238 2.82081 3.36583 2.40854 4.02138 2.23327Z" fill="#9E9EA4"/>
</svg>
